<svg xmlns="http://www.w3.org/2000/svg" viewBox="16 15 40 41" aria-hidden="true">
  <path fill="#4285F4" d="M17.73,16.44c-.11.42-.17.86-.17,1.31v35.38c0,.45.06.89.17,1.31l19.51-19.51-19.51-18.49Z"/>
  <path fill="#34A853" d="M36.74,35.43l9.76-9.76-21.21-12.3c-.77-.46-1.67-.73-2.63-.73-2.36,0-4.34,1.6-4.92,3.78h0s19,19,19,19h0Z"/>
  <path fill="#FBBC04" d="M55.68,31h-.02s-9.17-5.33-9.17-5.33l-10.33,9.19,10.36,10.36,9.12-5.26c1.6-.86,2.68-2.55,2.68-4.49s-1.07-3.61-2.65-4.47h0Z"/>
  <path fill="#EA4335" d="M36.6,34.41l-18.86,20.02s0,0,0,.01c.58,2.17,2.56,3.77,4.92,3.77.94,0,1.83-.26,2.58-.7l.06-.04,21.23-12.25-9.94-10.82Z"/>
</svg>
