<svg xmlns="http://www.w3.org/2000/svg" viewBox="0 0 24 24" aria-hidden="true">
  <path fill="currentColor" d="M16.365 1.43c0 1.14-.493 2.27-1.177 3.08-.744.9-1.99 1.57-2.987 1.64-.12-1.09.413-2.26 1.067-3.01.728-.84 1.99-1.46 3.097-1.71zm1.12 2.53c-1.57-.09-2.904.9-3.66.9-.78 0-1.939-.86-3.21-.84-1.65.03-3.177.97-4.027 2.46-1.72 2.98-1.457 7.37 1.23 9.79.84.77 1.84 1.37 3.09 1.32 1.22-.05 1.68-.8 3.15-.8 1.47 0 1.89.8 3.14.77 1.3-.02 2.12-.75 2.94-1.52 1.02-.94 1.44-1.85 1.46-1.9-.03-.01-2.81-1.08-2.84-4.28-.03-2.68 2.22-3.97 2.32-4.03-1.27-1.86-3.24-2.04-3.95-2.08z"/>
</svg>
